<svg width="72" height="19" viewBox="0 0 72 19" fill="none" xmlns="http://www.w3.org/2000/svg">
<path d="M6.936 1.248C6.936 2.464 6.528 4.848 5.712 8.4C6.672 7.712 7.536 7.368 8.304 7.368C9.088 7.368 9.752 7.696 10.296 8.352C10.856 8.992 11.136 9.976 11.136 11.304C11.136 13.528 10.696 15.248 9.816 16.464C8.952 17.68 7.896 18.288 6.648 18.288C6.184 18.288 5.712 18.232 5.232 18.12C4.768 18.008 4.416 17.888 4.176 17.76L3.816 17.592C2.792 17.944 1.792 18.12 0.816 18.12C0.72 18.04 0.672 17.656 0.672 16.968C0.672 16.264 1.12 13.96 2.016 10.056C2.912 6.136 3.36 3.456 3.36 2.016C3.36 1.76 3.32 1.432 3.24 1.032C4.488 0.599999 5.68 0.383999 6.816 0.383999C6.896 0.607999 6.936 0.895999 6.936 1.248ZM6.72 9.408C6.416 9.408 5.96 9.552 5.352 9.84C4.616 12.944 4.216 15.168 4.152 16.512C4.632 16.72 5.088 16.824 5.52 16.824C6.128 16.824 6.632 16.264 7.032 15.144C7.448 14.024 7.656 12.792 7.656 11.448C7.656 10.088 7.344 9.408 6.72 9.408ZM12.2033 18.072H12.0353C12.0033 17.944 11.9873 17.656 11.9873 17.208C11.9873 16.744 12.2033 15.512 12.6353 13.512C13.0673 11.512 13.2833 10.368 13.2833 10.08C13.2833 9.584 13.0593 9.04 12.6113 8.448L12.3953 8.16L12.4193 7.848C13.2833 7.608 14.6673 7.488 16.5713 7.488C16.7633 7.904 16.8593 8.488 16.8593 9.24C17.0353 8.952 17.4033 8.568 17.9633 8.088C18.5233 7.608 19.0993 7.368 19.6913 7.368C20.5553 7.368 20.9873 8.12 20.9873 9.624C20.9073 9.72 20.7953 9.848 20.6513 10.008C20.5233 10.152 20.2513 10.36 19.8353 10.632C19.4353 10.904 19.0433 11.072 18.6593 11.136C18.6433 11.136 18.5073 10.92 18.2513 10.488C17.9953 10.056 17.8033 9.84 17.6753 9.84C17.2753 9.984 16.9233 10.224 16.6193 10.56C15.8833 13.872 15.5153 16.016 15.5153 16.992C15.5153 17.344 15.5233 17.592 15.5393 17.736C14.9793 17.96 13.8673 18.072 12.2033 18.072ZM27.0894 8.064C27.1214 8.032 27.2094 7.824 27.3534 7.44C28.1054 7.44 29.1134 7.664 30.3774 8.112C29.9774 9.44 29.6574 10.832 29.4174 12.288C29.1774 13.728 29.0574 14.76 29.0574 15.384C29.0574 15.992 29.1214 16.296 29.2494 16.296C29.3454 16.296 29.6974 16.144 30.3054 15.84L30.5934 15.696L31.0254 16.536C30.8814 16.664 30.6894 16.824 30.4494 17.016C30.2254 17.208 29.7934 17.472 29.1534 17.808C28.5134 18.128 27.9374 18.288 27.4254 18.288C26.4334 18.288 25.8574 17.84 25.6974 16.944C24.6734 17.84 23.7454 18.288 22.9134 18.288C22.0974 18.288 21.4014 17.968 20.8254 17.328C20.2654 16.688 19.9854 15.68 19.9854 14.304C19.9854 12.16 20.4254 10.472 21.3054 9.24C22.1854 7.992 23.2494 7.368 24.4974 7.368C25.3934 7.368 26.2574 7.6 27.0894 8.064ZM24.3534 16.248C24.7374 16.248 25.1694 16.096 25.6494 15.792C25.7614 13.536 26.1374 11.304 26.7774 9.096C26.2974 8.888 25.8894 8.784 25.5534 8.784C24.9774 8.784 24.4814 9.352 24.0654 10.488C23.6654 11.608 23.4654 12.848 23.4654 14.208C23.4654 15.568 23.7614 16.248 24.3534 16.248ZM36.4607 8.568C35.8207 8.568 35.3087 9.104 34.9247 10.176C34.5407 11.232 34.3487 12.368 34.3487 13.584C34.3487 15.504 34.9407 16.464 36.1247 16.464C36.5087 16.464 36.9167 16.376 37.3487 16.2C37.7807 16.008 38.1247 15.824 38.3807 15.648L38.7407 15.36L39.2927 16.104C39.1647 16.28 38.9087 16.512 38.5247 16.8C38.1407 17.088 37.7807 17.328 37.4447 17.52C37.1087 17.712 36.6767 17.888 36.1487 18.048C35.6207 18.208 35.1007 18.288 34.5887 18.288C33.3407 18.288 32.4047 17.88 31.7807 17.064C31.1567 16.248 30.8447 15.152 30.8447 13.776C30.8447 11.872 31.3647 10.328 32.4047 9.144C33.4607 7.96 34.8127 7.368 36.4607 7.368C37.5327 7.368 38.3807 7.616 39.0047 8.112C39.6447 8.592 39.9647 9.192 39.9647 9.912C39.9647 10.616 39.7407 11.224 39.2927 11.736C38.8927 11.736 38.4287 11.648 37.9007 11.472C37.3727 11.296 36.9727 11.08 36.7007 10.824L37.0607 8.712C36.9167 8.616 36.7167 8.568 36.4607 8.568ZM39.8558 13.848C39.8558 11.848 40.4558 10.272 41.6558 9.12C42.8718 7.952 44.2478 7.368 45.7838 7.368C46.7278 7.368 47.5038 7.6 48.1118 8.064C48.7198 8.528 49.0238 9.152 49.0238 9.936C49.0238 10.704 48.8238 11.352 48.4238 11.88C48.0398 12.408 47.5678 12.816 47.0078 13.104C45.8718 13.664 44.8318 14.016 43.8878 14.16L43.3118 14.232C43.4238 15.736 44.0398 16.488 45.1598 16.488C45.5438 16.488 45.9518 16.392 46.3838 16.2C46.8158 16.008 47.1518 15.816 47.3918 15.624L47.7518 15.336L48.3278 16.104C48.1998 16.28 47.9438 16.512 47.5598 16.8C47.1758 17.088 46.8158 17.328 46.4798 17.52C45.5518 18.032 44.5358 18.288 43.4318 18.288C42.3278 18.288 41.4558 17.896 40.8158 17.112C40.1758 16.328 39.8558 15.24 39.8558 13.848ZM43.2878 13.056C44.1038 12.912 44.7518 12.568 45.2318 12.024C45.7118 11.48 45.9518 10.776 45.9518 9.912C45.9518 9.048 45.6958 8.616 45.1838 8.616C44.5758 8.616 44.1038 9.136 43.7678 10.176C43.4478 11.2 43.2878 12.16 43.2878 13.056ZM50.8577 18.288C50.3137 18.288 49.8577 18.104 49.4897 17.736C49.1377 17.368 48.9617 16.856 48.9617 16.2C48.9617 15.528 49.3537 13.408 50.1377 9.84C50.9377 6.256 51.3377 3.672 51.3377 2.088L51.1937 1.032C52.4417 0.599999 53.6097 0.383999 54.6977 0.383999C54.8577 0.607999 54.9377 0.999999 54.9377 1.56C54.9377 2.84 54.5297 5.32 53.7137 9C52.9137 12.664 52.5137 14.8 52.5137 15.408C52.5137 16 52.5857 16.296 52.7297 16.296L54.4097 15.696L54.8417 16.536C54.2977 16.968 53.6337 17.368 52.8497 17.736C52.0817 18.104 51.4177 18.288 50.8577 18.288ZM54.7607 13.848C54.7607 11.848 55.3607 10.272 56.5607 9.12C57.7767 7.952 59.1527 7.368 60.6887 7.368C61.6327 7.368 62.4087 7.6 63.0167 8.064C63.6247 8.528 63.9287 9.152 63.9287 9.936C63.9287 10.704 63.7287 11.352 63.3287 11.88C62.9447 12.408 62.4727 12.816 61.9127 13.104C60.7767 13.664 59.7367 14.016 58.7927 14.16L58.2167 14.232C58.3287 15.736 58.9447 16.488 60.0647 16.488C60.4487 16.488 60.8567 16.392 61.2887 16.2C61.7207 16.008 62.0567 15.816 62.2967 15.624L62.6567 15.336L63.2327 16.104C63.1047 16.28 62.8487 16.512 62.4647 16.8C62.0807 17.088 61.7207 17.328 61.3847 17.52C60.4567 18.032 59.4407 18.288 58.3367 18.288C57.2327 18.288 56.3607 17.896 55.7207 17.112C55.0807 16.328 54.7607 15.24 54.7607 13.848ZM58.1927 13.056C59.0087 12.912 59.6567 12.568 60.1367 12.024C60.6167 11.48 60.8567 10.776 60.8567 9.912C60.8567 9.048 60.6007 8.616 60.0887 8.616C59.4807 8.616 59.0087 9.136 58.6727 10.176C58.3527 11.2 58.1927 12.16 58.1927 13.056ZM71.4266 7.656C71.3946 8.056 71.2586 8.52 71.0186 9.048C70.4106 8.984 69.8346 8.952 69.2906 8.952H68.8586C68.1226 12.52 67.7546 14.744 67.7546 15.624C67.7546 16.088 67.8506 16.32 68.0426 16.32C68.2506 16.32 68.7866 16.12 69.6506 15.72L70.0826 16.512C68.6586 17.696 67.3386 18.288 66.1226 18.288C65.5626 18.288 65.0986 18.112 64.7306 17.76C64.3786 17.408 64.2026 16.944 64.2026 16.368C64.2026 15.776 64.2666 15.112 64.3946 14.376C64.5386 13.64 64.7306 12.744 64.9706 11.688C65.2106 10.616 65.3866 9.752 65.4986 9.096C64.9066 9.144 64.4666 9.192 64.1786 9.24C64.1466 9.048 64.1306 8.792 64.1306 8.472C64.1306 8.136 64.1546 7.864 64.2026 7.656H65.7146C65.8426 6.792 65.9066 5.976 65.9066 5.208L65.8826 4.464V4.392C67.1306 3.96 68.3066 3.744 69.4106 3.744C69.4746 4.064 69.5066 4.464 69.5066 4.944C69.5066 5.424 69.3706 6.328 69.0986 7.656H71.4266Z" fill="black"/>
</svg>
