<svg width="73" height="23" viewBox="0 0 73 23" fill="none" xmlns="http://www.w3.org/2000/svg">
<path d="M0.624 12.848C0.624 10.848 1.224 9.272 2.424 8.12C3.64 6.952 5.016 6.368 6.552 6.368C7.496 6.368 8.272 6.6 8.88 7.064C9.488 7.528 9.792 8.152 9.792 8.936C9.792 9.704 9.592 10.352 9.192 10.88C8.808 11.408 8.336 11.816 7.776 12.104C6.64 12.664 5.6 13.016 4.656 13.16L4.08 13.232C4.192 14.736 4.808 15.488 5.928 15.488C6.312 15.488 6.72 15.392 7.152 15.2C7.584 15.008 7.92 14.816 8.16 14.624L8.52 14.336L9.096 15.104C8.968 15.28 8.712 15.512 8.328 15.8C7.944 16.088 7.584 16.328 7.248 16.52C6.32 17.032 5.304 17.288 4.2 17.288C3.096 17.288 2.224 16.896 1.584 16.112C0.944 15.328 0.624 14.24 0.624 12.848ZM4.056 12.056C4.872 11.912 5.52 11.568 6 11.024C6.48 10.48 6.72 9.776 6.72 8.912C6.72 8.048 6.464 7.616 5.952 7.616C5.344 7.616 4.872 8.136 4.536 9.176C4.216 10.2 4.056 11.16 4.056 12.056ZM16.9299 7.064C16.9619 7.032 17.0499 6.824 17.1939 6.44C17.9459 6.44 18.9539 6.664 20.2179 7.112C19.8179 8.44 19.4979 9.832 19.2579 11.288C19.0179 12.728 18.8979 13.76 18.8979 14.384C18.8979 14.992 18.9619 15.296 19.0899 15.296C19.1859 15.296 19.5379 15.144 20.1459 14.84L20.4339 14.696L20.8659 15.536C20.7219 15.664 20.5299 15.824 20.2899 16.016C20.0659 16.208 19.6339 16.472 18.9939 16.808C18.3539 17.128 17.7779 17.288 17.2659 17.288C16.2739 17.288 15.6979 16.84 15.5379 15.944C14.5139 16.84 13.5859 17.288 12.7539 17.288C11.9379 17.288 11.2419 16.968 10.6659 16.328C10.1059 15.688 9.82594 14.68 9.82594 13.304C9.82594 11.16 10.2659 9.472 11.1459 8.24C12.0259 6.992 13.0899 6.368 14.3379 6.368C15.2339 6.368 16.0979 6.6 16.9299 7.064ZM14.1939 15.248C14.5779 15.248 15.0099 15.096 15.4899 14.792C15.6019 12.536 15.9779 10.304 16.6179 8.096C16.1379 7.888 15.7299 7.784 15.3939 7.784C14.8179 7.784 14.3219 8.352 13.9059 9.488C13.5059 10.608 13.3059 11.848 13.3059 13.208C13.3059 14.568 13.6019 15.248 14.1939 15.248ZM21.2612 17.072H21.0932C21.0612 16.944 21.0452 16.656 21.0452 16.208C21.0452 15.744 21.2612 14.512 21.6932 12.512C22.1252 10.512 22.3412 9.368 22.3412 9.08C22.3412 8.584 22.1172 8.04 21.6692 7.448L21.4532 7.16L21.4772 6.848C22.3412 6.608 23.7252 6.488 25.6292 6.488C25.8212 6.904 25.9172 7.488 25.9172 8.24C26.0932 7.952 26.4612 7.568 27.0212 7.088C27.5812 6.608 28.1572 6.368 28.7492 6.368C29.6132 6.368 30.0452 7.12 30.0452 8.624C29.9652 8.72 29.8532 8.848 29.7092 9.008C29.5812 9.152 29.3092 9.36 28.8932 9.632C28.4932 9.904 28.1012 10.072 27.7172 10.136C27.7012 10.136 27.5652 9.92 27.3092 9.488C27.0532 9.056 26.8612 8.84 26.7332 8.84C26.3332 8.984 25.9812 9.224 25.6772 9.56C24.9412 12.872 24.5732 15.016 24.5732 15.992C24.5732 16.344 24.5812 16.592 24.5972 16.736C24.0372 16.96 22.9252 17.072 21.2612 17.072ZM29.4754 17.072H29.3074C29.2754 16.944 29.2594 16.656 29.2594 16.208C29.2594 15.744 29.4754 14.512 29.9074 12.512C30.3394 10.512 30.5554 9.368 30.5554 9.08C30.5554 8.584 30.3314 8.04 29.8834 7.448L29.6674 7.16L29.6914 6.848C30.5554 6.608 31.9394 6.488 33.8434 6.488C34.0354 6.904 34.1314 7.488 34.1314 8.24C34.3074 7.952 34.6754 7.568 35.2354 7.088C35.7954 6.608 36.3714 6.368 36.9634 6.368C37.8274 6.368 38.2594 7.12 38.2594 8.624C38.1794 8.72 38.0674 8.848 37.9234 9.008C37.7954 9.152 37.5234 9.36 37.1074 9.632C36.7074 9.904 36.3154 10.072 35.9314 10.136C35.9154 10.136 35.7794 9.92 35.5234 9.488C35.2674 9.056 35.0754 8.84 34.9474 8.84C34.5474 8.984 34.1954 9.224 33.8914 9.56C33.1554 12.872 32.7874 15.016 32.7874 15.992C32.7874 16.344 32.7954 16.592 32.8114 16.736C32.2514 16.96 31.1394 17.072 29.4754 17.072ZM42.1776 7.856C42.1776 8.528 41.9616 9.688 41.5296 11.336C41.0976 12.968 40.8816 14.04 40.8816 14.552C40.8816 15.048 40.9536 15.296 41.0976 15.296C41.1936 15.296 41.5616 15.144 42.2016 14.84L42.4896 14.696L42.8976 15.536C42.7536 15.664 42.5616 15.824 42.3216 16.016C42.0816 16.208 41.6336 16.472 40.9776 16.808C40.3216 17.128 39.7136 17.288 39.1536 17.288C38.5936 17.288 38.1536 17.12 37.8336 16.784C37.5136 16.432 37.3536 15.968 37.3536 15.392C37.3536 14.8 37.5536 13.76 37.9536 12.272C38.3536 10.768 38.5536 9.792 38.5536 9.344C38.5536 8.672 38.3456 8.04 37.9296 7.448L37.7136 7.16L37.7376 6.848C38.5856 6.608 39.9616 6.488 41.8656 6.488C42.0736 6.728 42.1776 7.184 42.1776 7.856ZM39.4416 3.872C39.1216 3.552 38.9616 3.128 38.9616 2.6C38.9616 2.072 39.1776 1.608 39.6096 1.208C40.0576 0.807999 40.5696 0.607999 41.1456 0.607999C41.7216 0.607999 42.1696 0.767999 42.4896 1.088C42.8096 1.408 42.9696 1.832 42.9696 2.36C42.9696 2.872 42.7376 3.328 42.2736 3.728C41.8256 4.128 41.3216 4.328 40.7616 4.328C40.2016 4.328 39.7616 4.176 39.4416 3.872ZM43.8686 17.072H43.4126C43.4126 16.32 43.6366 14.88 44.0846 12.752C44.5486 10.624 44.7806 9.416 44.7806 9.128C44.7806 8.6 44.5566 8.04 44.1086 7.448L43.8926 7.16L43.9166 6.848C44.7806 6.608 46.1646 6.488 48.0686 6.488C48.2766 6.76 48.3886 7.256 48.4046 7.976C49.7966 6.904 50.9726 6.368 51.9326 6.368C52.5086 6.368 52.9646 6.568 53.3006 6.968C53.6526 7.368 53.8286 7.872 53.8286 8.48C53.8286 9.072 53.6446 10.104 53.2766 11.576C52.9086 13.048 52.7246 14.04 52.7246 14.552C52.7246 15.048 52.7886 15.296 52.9166 15.296C53.0126 15.296 53.3486 15.144 53.9246 14.84L54.2126 14.696L54.6446 15.536C54.5006 15.664 54.3086 15.824 54.0686 16.016C53.8286 16.208 53.3806 16.472 52.7246 16.808C52.0846 17.128 51.5086 17.288 50.9966 17.288C49.8286 17.288 49.2446 16.624 49.2446 15.296C49.2446 14.736 49.4206 13.704 49.7726 12.2C50.1406 10.696 50.3246 9.728 50.3246 9.296C50.3246 8.864 50.1886 8.648 49.9166 8.648C49.4526 8.648 48.8846 8.848 48.2126 9.248C48.1646 9.52 48.0046 10.24 47.7326 11.408C47.1726 13.92 46.8926 15.696 46.8926 16.736C46.3326 16.96 45.3246 17.072 43.8686 17.072ZM61.0481 21.224C60.4561 21.624 59.8881 21.912 59.3441 22.088C58.8001 22.28 58.2721 22.376 57.7601 22.376C57.2481 22.376 56.8321 22.232 56.5121 21.944C56.1921 21.656 56.0321 21.24 56.0321 20.696C56.0321 20.168 56.3761 19.664 57.0641 19.184C57.7521 18.704 58.4321 18.376 59.1041 18.2L60.1361 17.96L60.4961 16.04C59.5681 16.744 58.6721 17.096 57.8081 17.096C56.9601 17.096 56.2641 16.768 55.7201 16.112C55.1921 15.456 54.9281 14.408 54.9281 12.968C54.9281 11.08 55.3521 9.512 56.2001 8.264C57.0481 7 58.1681 6.368 59.5601 6.368C60.3441 6.368 61.1201 6.56 61.8881 6.944C62.7041 6.656 63.5841 6.512 64.5281 6.512L65.0321 6.536C65.0801 6.728 65.1041 7 65.1041 7.352C65.1041 8.76 64.6001 11.92 63.5921 16.832C63.4161 17.84 63.0961 18.72 62.6321 19.472C62.1681 20.24 61.6401 20.824 61.0481 21.224ZM60.6401 7.784C59.9521 7.784 59.4081 8.344 59.0081 9.464C58.6081 10.568 58.4081 11.8 58.4081 13.16C58.4081 14.504 58.7121 15.176 59.3201 15.176C59.7201 15.176 60.1921 15.024 60.7361 14.72C61.1841 12.032 61.5041 9.816 61.6961 8.072C61.2481 7.88 60.8961 7.784 60.6401 7.784ZM57.1121 20.648C57.1121 20.952 57.2881 21.104 57.6401 21.104C58.0081 21.104 58.4081 20.896 58.8401 20.48C59.2721 20.08 59.6161 19.584 59.8721 18.992C59.3441 19.056 58.7521 19.248 58.0961 19.568C57.4401 19.904 57.1121 20.264 57.1121 20.648ZM72.8306 13.856C72.8306 14.864 72.3826 15.688 71.4866 16.328C70.6066 16.968 69.5986 17.288 68.4626 17.288C67.3266 17.288 66.4226 17.048 65.7506 16.568C65.0946 16.088 64.7666 15.664 64.7666 15.296C64.7666 15.072 65.0466 14.712 65.6066 14.216C66.1666 13.704 66.6386 13.392 67.0226 13.28C67.8226 13.872 68.4786 14.808 68.9906 16.088C69.5826 16.04 69.8786 15.76 69.8786 15.248C69.8786 14.512 69.2306 13.472 67.9346 12.128C66.6386 10.768 65.9906 9.688 65.9906 8.888C65.9906 8.088 66.3506 7.472 67.0706 7.04C67.7906 6.592 68.6546 6.368 69.6626 6.368C70.6866 6.368 71.4546 6.552 71.9666 6.92C72.4786 7.272 72.7346 7.76 72.7346 8.384C72.7346 8.992 72.2466 9.84 71.2706 10.928C71.3826 11.04 71.5266 11.192 71.7026 11.384C71.8786 11.56 72.1106 11.904 72.3986 12.416C72.6866 12.928 72.8306 13.408 72.8306 13.856ZM70.5266 10.088C71.1986 9.512 71.5346 8.944 71.5346 8.384C71.5346 7.824 71.1506 7.544 70.3826 7.544C70.0146 7.544 69.7106 7.624 69.4706 7.784C69.2306 7.928 69.1106 8.096 69.1106 8.288C69.1106 8.64 69.4626 9.136 70.1666 9.776L70.5266 10.088Z" fill="black"/>
</svg>
