<svg width="121" height="42" viewBox="0 0 121 42" fill="none" xmlns="http://www.w3.org/2000/svg">
<path d="M7.492 20.676C7.492 20.2467 7.22133 19.6587 6.68 18.912L6.428 18.52L6.456 18.156C7.52 17.876 9.12533 17.736 11.272 17.736C11.5147 18.016 11.636 18.5387 11.636 19.304C11.636 20.0507 11.4027 21.8053 10.936 24.568C10.488 27.3307 10.1053 29.3187 9.788 30.532C9.48933 31.7453 9.172 32.6973 8.836 33.388C8.5 34.0973 7.968 34.7507 7.24 35.348C6.53067 35.964 5.77467 36.272 4.972 36.272C4.15067 36.272 3.39467 36.0947 2.704 35.74C2.01333 35.3853 1.49067 35.04 1.136 34.704L0.632 34.172L1.248 33.276C2.16267 33.8173 2.844 34.088 3.292 34.088C4.00133 34.088 4.636 33.5933 5.196 32.604C5.756 31.6147 6.27867 29.6547 6.764 26.724C7.24933 23.7747 7.492 21.7587 7.492 20.676ZM8.5 14.684C8.12667 14.3107 7.94 13.816 7.94 13.2C7.94 12.584 8.192 12.0427 8.696 11.576C9.21867 11.1093 9.816 10.876 10.488 10.876C11.16 10.876 11.6827 11.0627 12.056 11.436C12.4293 11.8093 12.616 12.304 12.616 12.92C12.616 13.5173 12.3453 14.0493 11.804 14.516C11.2813 14.9827 10.6933 15.216 10.04 15.216C9.38667 15.216 8.87333 15.0387 8.5 14.684ZM12.2761 25.156C12.2761 22.8227 12.9761 20.984 14.3761 19.64C15.7947 18.2773 17.4001 17.596 19.1921 17.596C20.2934 17.596 21.1987 17.8667 21.9081 18.408C22.6174 18.9493 22.9721 19.6773 22.9721 20.592C22.9721 21.488 22.7387 22.244 22.2721 22.86C21.8241 23.476 21.2734 23.952 20.6201 24.288C19.2947 24.9413 18.0814 25.352 16.9801 25.52L16.3081 25.604C16.4387 27.3587 17.1574 28.236 18.4641 28.236C18.9121 28.236 19.3881 28.124 19.8921 27.9C20.3961 27.676 20.7881 27.452 21.0681 27.228L21.4881 26.892L22.1601 27.788C22.0107 27.9933 21.7121 28.264 21.2641 28.6C20.8161 28.936 20.3961 29.216 20.0041 29.44C18.9214 30.0373 17.7361 30.336 16.4481 30.336C15.1601 30.336 14.1427 29.8787 13.3961 28.964C12.6494 28.0493 12.2761 26.78 12.2761 25.156ZM16.2801 24.232C17.2321 24.064 17.9881 23.6627 18.5481 23.028C19.1081 22.3933 19.3881 21.572 19.3881 20.564C19.3881 19.556 19.0894 19.052 18.4921 19.052C17.7827 19.052 17.2321 19.6587 16.8401 20.872C16.4667 22.0667 16.2801 23.1867 16.2801 24.232ZM23.5717 27.704L23.8797 20.396C23.8797 19.7613 23.5437 19.108 22.8717 18.436L22.9277 18.1C23.0583 18.0627 23.1797 18.0347 23.2917 18.016C23.4223 17.9787 23.5623 17.9413 23.7117 17.904C23.8797 17.8667 24.0663 17.8293 24.2717 17.792C24.477 17.7547 24.6917 17.7173 24.9157 17.68C25.4383 17.624 25.9237 17.596 26.3717 17.596C26.8383 17.596 27.2303 17.7827 27.5477 18.156C27.8837 18.5293 28.0517 19.1267 28.0517 19.948C28.0517 20.7507 27.921 21.908 27.6597 23.42C27.417 24.9133 27.2957 26.0333 27.2957 26.78C27.2957 27.508 27.473 27.872 27.8277 27.872C28.4063 27.872 29.041 27.508 29.7317 26.78C29.7503 26.4813 29.8717 25.5293 30.0957 23.924C30.3197 22.3187 30.4317 21.152 30.4317 20.424C30.4317 19.696 30.3757 19.0707 30.2637 18.548C31.701 18.0067 32.989 17.736 34.1277 17.736C34.3703 17.904 34.4917 18.4547 34.4917 19.388C34.4917 20.3027 34.333 21.5813 34.0157 23.224C33.6983 24.848 33.5397 26.0333 33.5397 26.78C33.5397 27.508 33.689 27.872 33.9877 27.872C34.697 27.872 35.4717 27.3493 36.3117 26.304C37.1517 25.24 37.5997 24.3533 37.6557 23.644L35.7517 21.516C35.8263 20.7133 36.0223 19.9853 36.3397 19.332C36.657 18.6787 36.9557 18.2213 37.2357 17.96L37.6277 17.596C38.4303 17.596 39.037 17.8107 39.4477 18.24C39.8583 18.6693 40.0637 19.1733 40.0637 19.752C40.0637 21.2267 39.6997 22.7853 38.9717 24.428C38.2437 26.0707 37.2637 27.4707 36.0317 28.628C34.7997 29.7667 33.549 30.336 32.2797 30.336C31.645 30.336 31.1037 30.1587 30.6557 29.804C30.2263 29.4307 29.937 28.9547 29.7877 28.376C28.481 29.6827 27.2117 30.336 25.9797 30.336C25.1583 30.336 24.5517 30.084 24.1597 29.58C23.7677 29.0573 23.5717 28.432 23.5717 27.704ZM39.7003 25.156C39.7003 22.8227 40.4003 20.984 41.8003 19.64C43.219 18.2773 44.8243 17.596 46.6163 17.596C47.7176 17.596 48.623 17.8667 49.3323 18.408C50.0416 18.9493 50.3963 19.6773 50.3963 20.592C50.3963 21.488 50.163 22.244 49.6963 22.86C49.2483 23.476 48.6976 23.952 48.0443 24.288C46.719 24.9413 45.5056 25.352 44.4043 25.52L43.7323 25.604C43.863 27.3587 44.5816 28.236 45.8883 28.236C46.3363 28.236 46.8123 28.124 47.3163 27.9C47.8203 27.676 48.2123 27.452 48.4923 27.228L48.9123 26.892L49.5843 27.788C49.435 27.9933 49.1363 28.264 48.6883 28.6C48.2403 28.936 47.8203 29.216 47.4283 29.44C46.3456 30.0373 45.1603 30.336 43.8723 30.336C42.5843 30.336 41.567 29.8787 40.8203 28.964C40.0736 28.0493 39.7003 26.78 39.7003 25.156ZM43.7043 24.232C44.6563 24.064 45.4123 23.6627 45.9723 23.028C46.5323 22.3933 46.8123 21.572 46.8123 20.564C46.8123 19.556 46.5136 19.052 45.9163 19.052C45.207 19.052 44.6563 19.6587 44.2643 20.872C43.891 22.0667 43.7043 23.1867 43.7043 24.232ZM52.5359 30.336C51.9012 30.336 51.3692 30.1213 50.9399 29.692C50.5292 29.2627 50.3239 28.6653 50.3239 27.9C50.3239 27.116 50.7812 24.6427 51.6959 20.48C52.6292 16.2987 53.0959 13.284 53.0959 11.436L52.9279 10.204C54.3839 9.7 55.7466 9.448 57.0159 9.448C57.2026 9.70933 57.2959 10.1667 57.2959 10.82C57.2959 12.3133 56.8199 15.2067 55.8679 19.5C54.9346 23.7747 54.4679 26.2667 54.4679 26.976C54.4679 27.6667 54.5519 28.012 54.7199 28.012L56.6799 27.312L57.1839 28.292C56.5492 28.796 55.7746 29.2627 54.8599 29.692C53.9639 30.1213 53.1892 30.336 52.5359 30.336ZM57.7614 30.084H57.5654C57.5281 29.9347 57.5094 29.5987 57.5094 29.076C57.5094 28.5347 57.7614 27.0973 58.2654 24.764C58.7694 22.4307 59.0214 21.096 59.0214 20.76C59.0214 20.1813 58.7601 19.5467 58.2374 18.856L57.9854 18.52L58.0134 18.156C59.0214 17.876 60.6361 17.736 62.8574 17.736C63.0814 18.2213 63.1934 18.9027 63.1934 19.78C63.3987 19.444 63.8281 18.996 64.4814 18.436C65.1347 17.876 65.8067 17.596 66.4974 17.596C67.5054 17.596 68.0094 18.4733 68.0094 20.228C67.9161 20.34 67.7854 20.4893 67.6174 20.676C67.4681 20.844 67.1507 21.0867 66.6654 21.404C66.1987 21.7213 65.7414 21.9173 65.2934 21.992C65.2747 21.992 65.1161 21.74 64.8174 21.236C64.5187 20.732 64.2947 20.48 64.1454 20.48C63.6787 20.648 63.2681 20.928 62.9134 21.32C62.0547 25.184 61.6254 27.6853 61.6254 28.824C61.6254 29.2347 61.6347 29.524 61.6534 29.692C61.0001 29.9533 59.7027 30.084 57.7614 30.084ZM69.0019 30.112C67.4525 30.112 66.6779 29.2533 66.6779 27.536C66.6779 27.1253 66.8645 25.94 67.2379 23.98C67.6112 22.02 67.7979 20.3867 67.7979 19.08C67.7979 18.8 67.7605 18.5387 67.6859 18.296C68.6939 17.904 70.0752 17.708 71.8299 17.708C71.9232 17.9693 71.9699 18.4173 71.9699 19.052C71.9699 19.6867 71.7645 20.956 71.3539 22.86C70.9432 24.764 70.7379 26.0053 70.7379 26.584C70.7379 27.1627 70.8872 27.452 71.1859 27.452C72.0072 27.452 72.8005 27.1627 73.5659 26.584C73.6219 25.8933 73.9952 23.084 74.6859 18.156C75.3392 17.8947 76.5152 17.764 78.2139 17.764H78.7459C78.5219 18.6413 78.1485 20.8627 77.6259 24.428C77.1219 27.9747 76.7579 30.224 76.5339 31.176C76.3099 32.128 76.0019 32.968 75.6099 33.696C75.2365 34.424 74.7699 34.9653 74.2099 35.32C73.6685 35.6933 73.1179 35.9453 72.5579 36.076C71.9979 36.2067 71.2699 36.272 70.3739 36.272C69.4965 36.272 68.6565 35.9827 67.8539 35.404C67.0699 34.844 66.6779 34.3587 66.6779 33.948C66.6779 33.6867 67.0045 33.2853 67.6579 32.744C68.3299 32.2027 68.8899 31.8667 69.3379 31.736C70.2899 32.688 70.9899 33.724 71.4379 34.844C71.9232 34.844 72.3525 34.2653 72.7259 33.108C73.0992 31.9507 73.3512 30.252 73.4819 28.012C73.0339 28.46 72.3525 28.9267 71.4379 29.412C70.5232 29.8787 69.7112 30.112 69.0019 30.112Z" fill="black"/>
<path d="M87.136 25.856C87.136 26.864 86.688 27.688 85.792 28.328C84.912 28.968 83.904 29.288 82.768 29.288C81.632 29.288 80.728 29.048 80.056 28.568C79.4 28.088 79.072 27.664 79.072 27.296C79.072 27.072 79.352 26.712 79.912 26.216C80.472 25.704 80.944 25.392 81.328 25.28C82.128 25.872 82.784 26.808 83.296 28.088C83.888 28.04 84.184 27.76 84.184 27.248C84.184 26.512 83.536 25.472 82.24 24.128C80.944 22.768 80.296 21.688 80.296 20.888C80.296 20.088 80.656 19.472 81.376 19.04C82.096 18.592 82.96 18.368 83.968 18.368C84.992 18.368 85.76 18.552 86.272 18.92C86.784 19.272 87.04 19.76 87.04 20.384C87.04 20.992 86.552 21.84 85.576 22.928C85.688 23.04 85.832 23.192 86.008 23.384C86.184 23.56 86.416 23.904 86.704 24.416C86.992 24.928 87.136 25.408 87.136 25.856ZM84.832 22.088C85.504 21.512 85.84 20.944 85.84 20.384C85.84 19.824 85.456 19.544 84.688 19.544C84.32 19.544 84.016 19.624 83.776 19.784C83.536 19.928 83.416 20.096 83.416 20.288C83.416 20.64 83.768 21.136 84.472 21.776L84.832 22.088ZM95.2353 18.656C95.2033 19.056 95.0673 19.52 94.8273 20.048C94.2193 19.984 93.6433 19.952 93.0993 19.952H92.6673C91.9313 23.52 91.5633 25.744 91.5633 26.624C91.5633 27.088 91.6593 27.32 91.8513 27.32C92.0593 27.32 92.5953 27.12 93.4593 26.72L93.8913 27.512C92.4673 28.696 91.1473 29.288 89.9313 29.288C89.3713 29.288 88.9073 29.112 88.5393 28.76C88.1873 28.408 88.0113 27.944 88.0113 27.368C88.0113 26.776 88.0753 26.112 88.2033 25.376C88.3473 24.64 88.5393 23.744 88.7793 22.688C89.0193 21.616 89.1953 20.752 89.3073 20.096C88.7153 20.144 88.2753 20.192 87.9873 20.24C87.9553 20.048 87.9393 19.792 87.9393 19.472C87.9393 19.136 87.9633 18.864 88.0113 18.656H89.5233C89.6513 17.792 89.7153 16.976 89.7153 16.208L89.6913 15.464V15.392C90.9393 14.96 92.1153 14.744 93.2193 14.744C93.2833 15.064 93.3153 15.464 93.3153 15.944C93.3153 16.424 93.1793 17.328 92.9073 18.656H95.2353ZM97.7037 29.288C96.5997 29.288 95.7357 28.904 95.1117 28.136C94.4877 27.352 94.1757 26.264 94.1757 24.872C94.1757 23.096 94.6477 21.568 95.5917 20.288C96.5517 19.008 97.8717 18.368 99.5517 18.368L100.416 18.416C100.688 18.272 100.992 18.2 101.328 18.2C102.592 18.2 103.224 19.392 103.224 21.776C103.88 21.744 104.544 21.656 105.216 21.512L105.6 21.416L105.744 22.352C105.216 22.576 104.504 22.776 103.608 22.952L103.128 23.048C102.824 24.728 102.208 26.192 101.28 27.44C100.352 28.672 99.1597 29.288 97.7037 29.288ZM98.9997 27.224C99.6717 27.224 100.272 26.792 100.8 25.928C101.344 25.064 101.72 24.152 101.928 23.192C100.216 23.192 99.3597 22.552 99.3597 21.272C99.3597 20.76 99.4637 20.28 99.6717 19.832L99.7917 19.592C99.7277 19.56 99.6477 19.544 99.5517 19.544C99.4557 19.544 99.3837 19.56 99.3357 19.592C98.9357 19.848 98.5597 20.448 98.2077 21.392C97.8557 22.336 97.6797 23.416 97.6797 24.632C97.6797 26.36 98.1197 27.224 98.9997 27.224ZM103.788 29.072H103.62C103.588 28.944 103.572 28.656 103.572 28.208C103.572 27.744 103.788 26.512 104.22 24.512C104.652 22.512 104.868 21.368 104.868 21.08C104.868 20.584 104.644 20.04 104.196 19.448L103.98 19.16L104.004 18.848C104.868 18.608 106.252 18.488 108.156 18.488C108.348 18.904 108.444 19.488 108.444 20.24C108.62 19.952 108.988 19.568 109.548 19.088C110.108 18.608 110.684 18.368 111.276 18.368C112.14 18.368 112.572 19.12 112.572 20.624C112.492 20.72 112.38 20.848 112.236 21.008C112.108 21.152 111.836 21.36 111.42 21.632C111.02 21.904 110.628 22.072 110.244 22.136C110.228 22.136 110.092 21.92 109.836 21.488C109.58 21.056 109.388 20.84 109.26 20.84C108.86 20.984 108.508 21.224 108.204 21.56C107.468 24.872 107.1 27.016 107.1 27.992C107.1 28.344 107.108 28.592 107.124 28.736C106.564 28.96 105.452 29.072 103.788 29.072ZM111.426 24.848C111.426 22.848 112.026 21.272 113.226 20.12C114.442 18.952 115.818 18.368 117.354 18.368C118.298 18.368 119.074 18.6 119.682 19.064C120.29 19.528 120.594 20.152 120.594 20.936C120.594 21.704 120.394 22.352 119.994 22.88C119.61 23.408 119.138 23.816 118.578 24.104C117.442 24.664 116.402 25.016 115.458 25.16L114.882 25.232C114.994 26.736 115.61 27.488 116.73 27.488C117.114 27.488 117.522 27.392 117.954 27.2C118.386 27.008 118.722 26.816 118.962 26.624L119.322 26.336L119.898 27.104C119.77 27.28 119.514 27.512 119.13 27.8C118.746 28.088 118.386 28.328 118.05 28.52C117.122 29.032 116.106 29.288 115.002 29.288C113.898 29.288 113.026 28.896 112.386 28.112C111.746 27.328 111.426 26.24 111.426 24.848ZM114.858 24.056C115.674 23.912 116.322 23.568 116.802 23.024C117.282 22.48 117.522 21.776 117.522 20.912C117.522 20.048 117.266 19.616 116.754 19.616C116.146 19.616 115.674 20.136 115.338 21.176C115.018 22.2 114.858 23.16 114.858 24.056Z" fill="#8E8D8D"/>
</svg>
