<svg width="51" height="27" viewBox="0 0 51 27" fill="none" xmlns="http://www.w3.org/2000/svg">
<path d="M0.4 20.084H0.204C0.166667 19.9347 0.148 19.5987 0.148 19.076C0.148 18.5347 0.4 17.0973 0.904 14.764C1.408 12.4307 1.66 11.096 1.66 10.76C1.66 10.1813 1.39867 9.54667 0.876 8.856L0.624 8.52L0.652 8.156C1.66 7.876 3.27467 7.736 5.496 7.736C5.72 8.22133 5.832 8.90267 5.832 9.78C6.03733 9.444 6.46667 8.996 7.12 8.436C7.77333 7.876 8.44533 7.596 9.136 7.596C10.144 7.596 10.648 8.47333 10.648 10.228C10.5547 10.34 10.424 10.4893 10.256 10.676C10.1067 10.844 9.78933 11.0867 9.304 11.404C8.83733 11.7213 8.38 11.9173 7.932 11.992C7.91333 11.992 7.75467 11.74 7.456 11.236C7.15733 10.732 6.93333 10.48 6.784 10.48C6.31733 10.648 5.90667 10.928 5.552 11.32C4.69333 15.184 4.264 17.6853 4.264 18.824C4.264 19.2347 4.27333 19.524 4.292 19.692C3.63867 19.9533 2.34133 20.084 0.4 20.084ZM15.2192 9.332C15.2192 10.116 14.9672 11.4693 14.4632 13.392C13.9592 15.296 13.7072 16.5467 13.7072 17.144C13.7072 17.7227 13.7912 18.012 13.9592 18.012C14.0712 18.012 14.5006 17.8347 15.2472 17.48L15.5832 17.312L16.0592 18.292C15.8912 18.4413 15.6672 18.628 15.3872 18.852C15.1072 19.076 14.5846 19.384 13.8192 19.776C13.0539 20.1493 12.3446 20.336 11.6912 20.336C11.0379 20.336 10.5246 20.14 10.1512 19.748C9.77789 19.3373 9.59122 18.796 9.59122 18.124C9.59122 17.4333 9.82455 16.22 10.2912 14.484C10.7579 12.7293 10.9912 11.5907 10.9912 11.068C10.9912 10.284 10.7486 9.54667 10.2632 8.856L10.0112 8.52L10.0392 8.156C11.0286 7.876 12.6339 7.736 14.8552 7.736C15.0979 8.016 15.2192 8.548 15.2192 9.332ZM12.0272 4.684C11.6539 4.31067 11.4672 3.816 11.4672 3.2C11.4672 2.584 11.7192 2.04267 12.2232 1.576C12.7459 1.10933 13.3432 0.875999 14.0152 0.875999C14.6872 0.875999 15.2099 1.06267 15.5832 1.436C15.9566 1.80933 16.1432 2.304 16.1432 2.92C16.1432 3.51733 15.8726 4.04933 15.3312 4.516C14.8086 4.98267 14.2206 5.216 13.5672 5.216C12.9139 5.216 12.4006 5.03867 12.0272 4.684ZM17.1921 20.084H16.6601C16.6601 19.2067 16.9215 17.5267 17.4441 15.044C17.9855 12.5613 18.2561 11.152 18.2561 10.816C18.2561 10.2 17.9948 9.54667 17.4721 8.856L17.2201 8.52L17.2481 8.156C18.2561 7.876 19.8708 7.736 22.0921 7.736C22.3348 8.05333 22.4655 8.632 22.4841 9.472C24.1081 8.22133 25.4801 7.596 26.6001 7.596C27.2721 7.596 27.8041 7.82933 28.1961 8.296C28.6068 8.76267 28.8121 9.35067 28.8121 10.06C28.8121 10.7507 28.5975 11.9547 28.1681 13.672C27.7388 15.3893 27.5241 16.5467 27.5241 17.144C27.5241 17.7227 27.5988 18.012 27.7481 18.012C27.8601 18.012 28.2521 17.8347 28.9241 17.48L29.2601 17.312L29.7641 18.292C29.5961 18.4413 29.3721 18.628 29.0921 18.852C28.8121 19.076 28.2895 19.384 27.5241 19.776C26.7775 20.1493 26.1055 20.336 25.5081 20.336C24.1455 20.336 23.4641 19.5613 23.4641 18.012C23.4641 17.3587 23.6695 16.1547 24.0801 14.4C24.5095 12.6453 24.7241 11.516 24.7241 11.012C24.7241 10.508 24.5655 10.256 24.2481 10.256C23.7068 10.256 23.0441 10.4893 22.2601 10.956C22.2041 11.2733 22.0175 12.1133 21.7001 13.476C21.0468 16.4067 20.7201 18.4787 20.7201 19.692C20.0668 19.9533 18.8908 20.084 17.1921 20.084ZM37.2349 24.928C36.5442 25.3947 35.8815 25.7307 35.2469 25.936C34.6122 26.16 33.9962 26.272 33.3989 26.272C32.8015 26.272 32.3162 26.104 31.9429 25.768C31.5695 25.432 31.3829 24.9467 31.3829 24.312C31.3829 23.696 31.7842 23.108 32.5869 22.548C33.3895 21.988 34.1829 21.6053 34.9669 21.4L36.1709 21.12L36.5909 18.88C35.5082 19.7013 34.4629 20.112 33.4549 20.112C32.4655 20.112 31.6535 19.7293 31.0189 18.964C30.4029 18.1987 30.0949 16.976 30.0949 15.296C30.0949 13.0933 30.5895 11.264 31.5789 9.808C32.5682 8.33333 33.8749 7.596 35.4989 7.596C36.4135 7.596 37.3189 7.82 38.2149 8.268C39.1669 7.932 40.1935 7.764 41.2949 7.764L41.8829 7.792C41.9389 8.016 41.9669 8.33333 41.9669 8.744C41.9669 10.3867 41.3789 14.0733 40.2029 19.804C39.9975 20.98 39.6242 22.0067 39.0829 22.884C38.5415 23.78 37.9255 24.4613 37.2349 24.928ZM36.7589 9.248C35.9562 9.248 35.3215 9.90133 34.8549 11.208C34.3882 12.496 34.1549 13.9333 34.1549 15.52C34.1549 17.088 34.5095 17.872 35.2189 17.872C35.6855 17.872 36.2362 17.6947 36.8709 17.34C37.3935 14.204 37.7669 11.6187 37.9909 9.584C37.4682 9.36 37.0575 9.248 36.7589 9.248ZM32.6429 24.256C32.6429 24.6107 32.8482 24.788 33.2589 24.788C33.6882 24.788 34.1549 24.5453 34.6589 24.06C35.1629 23.5933 35.5642 23.0147 35.8629 22.324C35.2469 22.3987 34.5562 22.6227 33.7909 22.996C33.0255 23.388 32.6429 23.808 32.6429 24.256ZM50.9811 16.332C50.9811 17.508 50.4585 18.4693 49.4131 19.216C48.3865 19.9627 47.2105 20.336 45.8851 20.336C44.5598 20.336 43.5051 20.056 42.7211 19.496C41.9558 18.936 41.5731 18.4413 41.5731 18.012C41.5731 17.7507 41.8998 17.3307 42.5531 16.752C43.2065 16.1547 43.7571 15.7907 44.2051 15.66C45.1385 16.3507 45.9038 17.4427 46.5011 18.936C47.1918 18.88 47.5371 18.5533 47.5371 17.956C47.5371 17.0973 46.7811 15.884 45.2691 14.316C43.7571 12.7293 43.0011 11.4693 43.0011 10.536C43.0011 9.60267 43.4211 8.884 44.2611 8.38C45.1011 7.85733 46.1091 7.596 47.2851 7.596C48.4798 7.596 49.3758 7.81067 49.9731 8.24C50.5705 8.65067 50.8691 9.22 50.8691 9.948C50.8691 10.6573 50.2998 11.6467 49.1611 12.916C49.2918 13.0467 49.4598 13.224 49.6651 13.448C49.8705 13.6533 50.1411 14.0547 50.4771 14.652C50.8131 15.2493 50.9811 15.8093 50.9811 16.332ZM48.2931 11.936C49.0771 11.264 49.4691 10.6013 49.4691 9.948C49.4691 9.29467 49.0211 8.968 48.1251 8.968C47.6958 8.968 47.3411 9.06133 47.0611 9.248C46.7811 9.416 46.6411 9.612 46.6411 9.836C46.6411 10.2467 47.0518 10.8253 47.8731 11.572L48.2931 11.936Z" fill="black"/>
</svg>
