<svg width="101" height="19" viewBox="0 0 101 19" fill="none" xmlns="http://www.w3.org/2000/svg">
<path d="M1.248 16.032L1.512 9.768C1.512 9.224 1.224 8.664 0.648 8.088L0.696 7.8C0.808 7.768 0.912 7.744 1.008 7.728C1.12 7.696 1.24 7.664 1.368 7.632C1.512 7.6 1.672 7.568 1.848 7.536C2.024 7.504 2.208 7.472 2.4 7.44C2.848 7.392 3.264 7.368 3.648 7.368C4.048 7.368 4.384 7.528 4.656 7.848C4.944 8.168 5.088 8.68 5.088 9.384C5.088 10.072 4.976 11.064 4.752 12.36C4.544 13.64 4.44 14.6 4.44 15.24C4.44 15.864 4.592 16.176 4.896 16.176C5.392 16.176 5.936 15.864 6.528 15.24C6.544 14.984 6.648 14.168 6.84 12.792C7.032 11.416 7.128 10.416 7.128 9.792C7.128 9.168 7.08 8.632 6.984 8.184C8.216 7.72 9.32 7.488 10.296 7.488C10.504 7.632 10.608 8.104 10.608 8.904C10.608 9.688 10.472 10.784 10.2 12.192C9.928 13.584 9.792 14.6 9.792 15.24C9.792 15.864 9.92 16.176 10.176 16.176C10.784 16.176 11.448 15.728 12.168 14.832C12.888 13.92 13.272 13.16 13.32 12.552L11.688 10.728C11.752 10.04 11.92 9.416 12.192 8.856C12.464 8.296 12.72 7.904 12.96 7.68L13.296 7.368C13.984 7.368 14.504 7.552 14.856 7.92C15.208 8.288 15.384 8.72 15.384 9.216C15.384 10.48 15.072 11.816 14.448 13.224C13.824 14.632 12.984 15.832 11.928 16.824C10.872 17.8 9.8 18.288 8.712 18.288C8.168 18.288 7.704 18.136 7.32 17.832C6.952 17.512 6.704 17.104 6.576 16.608C5.456 17.728 4.368 18.288 3.312 18.288C2.608 18.288 2.088 18.072 1.752 17.64C1.416 17.192 1.248 16.656 1.248 16.032ZM15.6486 18.072H15.4806C15.4486 17.944 15.4326 17.656 15.4326 17.208C15.4326 16.744 15.6486 15.512 16.0806 13.512C16.5126 11.512 16.7286 10.368 16.7286 10.08C16.7286 9.584 16.5046 9.04 16.0566 8.448L15.8406 8.16L15.8646 7.848C16.7286 7.608 18.1126 7.488 20.0166 7.488C20.2086 7.904 20.3046 8.488 20.3046 9.24C20.4806 8.952 20.8486 8.568 21.4086 8.088C21.9686 7.608 22.5446 7.368 23.1366 7.368C24.0006 7.368 24.4326 8.12 24.4326 9.624C24.3526 9.72 24.2406 9.848 24.0966 10.008C23.9686 10.152 23.6966 10.36 23.2806 10.632C22.8806 10.904 22.4886 11.072 22.1046 11.136C22.0886 11.136 21.9526 10.92 21.6966 10.488C21.4406 10.056 21.2486 9.84 21.1206 9.84C20.7206 9.984 20.3686 10.224 20.0646 10.56C19.3286 13.872 18.9606 16.016 18.9606 16.992C18.9606 17.344 18.9686 17.592 18.9846 17.736C18.4246 17.96 17.3126 18.072 15.6486 18.072ZM28.3508 8.856C28.3508 9.528 28.1348 10.688 27.7028 12.336C27.2708 13.968 27.0548 15.04 27.0548 15.552C27.0548 16.048 27.1268 16.296 27.2708 16.296C27.3668 16.296 27.7348 16.144 28.3748 15.84L28.6628 15.696L29.0708 16.536C28.9268 16.664 28.7348 16.824 28.4948 17.016C28.2548 17.208 27.8068 17.472 27.1508 17.808C26.4948 18.128 25.8868 18.288 25.3268 18.288C24.7668 18.288 24.3268 18.12 24.0068 17.784C23.6868 17.432 23.5268 16.968 23.5268 16.392C23.5268 15.8 23.7268 14.76 24.1268 13.272C24.5268 11.768 24.7268 10.792 24.7268 10.344C24.7268 9.672 24.5188 9.04 24.1028 8.448L23.8868 8.16L23.9108 7.848C24.7588 7.608 26.1348 7.488 28.0388 7.488C28.2468 7.728 28.3508 8.184 28.3508 8.856ZM25.6148 4.872C25.2948 4.552 25.1348 4.128 25.1348 3.6C25.1348 3.072 25.3508 2.608 25.7828 2.208C26.2308 1.808 26.7428 1.608 27.3188 1.608C27.8948 1.608 28.3428 1.768 28.6628 2.088C28.9828 2.408 29.1428 2.832 29.1428 3.36C29.1428 3.872 28.9108 4.328 28.4468 4.728C27.9988 5.128 27.4948 5.328 26.9348 5.328C26.3748 5.328 25.9348 5.176 25.6148 4.872ZM36.8098 14.856C36.8098 15.864 36.3618 16.688 35.4658 17.328C34.5858 17.968 33.5778 18.288 32.4418 18.288C31.3058 18.288 30.4018 18.048 29.7298 17.568C29.0738 17.088 28.7458 16.664 28.7458 16.296C28.7458 16.072 29.0258 15.712 29.5858 15.216C30.1458 14.704 30.6178 14.392 31.0018 14.28C31.8018 14.872 32.4578 15.808 32.9698 17.088C33.5618 17.04 33.8578 16.76 33.8578 16.248C33.8578 15.512 33.2098 14.472 31.9138 13.128C30.6178 11.768 29.9698 10.688 29.9698 9.888C29.9698 9.088 30.3298 8.472 31.0498 8.04C31.7698 7.592 32.6338 7.368 33.6418 7.368C34.6658 7.368 35.4338 7.552 35.9458 7.92C36.4578 8.272 36.7138 8.76 36.7138 9.384C36.7138 9.992 36.2258 10.84 35.2498 11.928C35.3618 12.04 35.5058 12.192 35.6818 12.384C35.8578 12.56 36.0898 12.904 36.3778 13.416C36.6658 13.928 36.8098 14.408 36.8098 14.856ZM34.5058 11.088C35.1778 10.512 35.5138 9.944 35.5138 9.384C35.5138 8.824 35.1298 8.544 34.3618 8.544C33.9938 8.544 33.6898 8.624 33.4498 8.784C33.2098 8.928 33.0898 9.096 33.0898 9.288C33.0898 9.64 33.4418 10.136 34.1458 10.776L34.5058 11.088ZM44.9091 7.656C44.8771 8.056 44.7411 8.52 44.5011 9.048C43.8931 8.984 43.3171 8.952 42.7731 8.952H42.3411C41.6051 12.52 41.2371 14.744 41.2371 15.624C41.2371 16.088 41.3331 16.32 41.5251 16.32C41.7331 16.32 42.2691 16.12 43.1331 15.72L43.5651 16.512C42.1411 17.696 40.8211 18.288 39.6051 18.288C39.0451 18.288 38.5811 18.112 38.2131 17.76C37.8611 17.408 37.6851 16.944 37.6851 16.368C37.6851 15.776 37.7491 15.112 37.8771 14.376C38.0211 13.64 38.2131 12.744 38.4531 11.688C38.6931 10.616 38.8691 9.752 38.9811 9.096C38.3891 9.144 37.9491 9.192 37.6611 9.24C37.6291 9.048 37.6131 8.792 37.6131 8.472C37.6131 8.136 37.6371 7.864 37.6851 7.656H39.1971C39.3251 6.792 39.3891 5.976 39.3891 5.208L39.3651 4.464V4.392C40.6131 3.96 41.7891 3.744 42.8931 3.744C42.9571 4.064 42.9891 4.464 42.9891 4.944C42.9891 5.424 42.8531 6.328 42.5811 7.656H44.9091ZM48.7519 16.032L49.0159 9.768C49.0159 9.224 48.7279 8.664 48.1519 8.088L48.1999 7.8C48.3119 7.768 48.4159 7.744 48.5119 7.728C48.6239 7.696 48.7439 7.664 48.8719 7.632C49.0159 7.6 49.1759 7.568 49.3519 7.536C49.5279 7.504 49.7119 7.472 49.9039 7.44C50.3519 7.392 50.7679 7.368 51.1519 7.368C51.5519 7.368 51.8879 7.528 52.1599 7.848C52.4479 8.168 52.5919 8.68 52.5919 9.384C52.5919 10.072 52.4799 11.064 52.2559 12.36C52.0479 13.64 51.9439 14.6 51.9439 15.24C51.9439 15.864 52.0959 16.176 52.3999 16.176C52.8959 16.176 53.4399 15.864 54.0319 15.24C54.0479 14.984 54.1519 14.168 54.3439 12.792C54.5359 11.416 54.6319 10.416 54.6319 9.792C54.6319 9.168 54.5839 8.632 54.4879 8.184C55.7199 7.72 56.8239 7.488 57.7999 7.488C58.0079 7.632 58.1119 8.104 58.1119 8.904C58.1119 9.688 57.9759 10.784 57.7039 12.192C57.4319 13.584 57.2959 14.6 57.2959 15.24C57.2959 15.864 57.4239 16.176 57.6799 16.176C58.2879 16.176 58.9519 15.728 59.6719 14.832C60.3919 13.92 60.7759 13.16 60.8239 12.552L59.1919 10.728C59.2559 10.04 59.4239 9.416 59.6959 8.856C59.9679 8.296 60.2239 7.904 60.4639 7.68L60.7999 7.368C61.4879 7.368 62.0079 7.552 62.3599 7.92C62.7119 8.288 62.8879 8.72 62.8879 9.216C62.8879 10.48 62.5759 11.816 61.9519 13.224C61.3279 14.632 60.4879 15.832 59.4319 16.824C58.3759 17.8 57.3039 18.288 56.2159 18.288C55.6719 18.288 55.2079 18.136 54.8239 17.832C54.4559 17.512 54.2079 17.104 54.0799 16.608C52.9599 17.728 51.8719 18.288 50.8159 18.288C50.1119 18.288 49.5919 18.072 49.2559 17.64C48.9199 17.192 48.7519 16.656 48.7519 16.032ZM69.8244 8.064C69.8564 8.032 69.9444 7.824 70.0884 7.44C70.8404 7.44 71.8484 7.664 73.1124 8.112C72.7124 9.44 72.3924 10.832 72.1524 12.288C71.9124 13.728 71.7924 14.76 71.7924 15.384C71.7924 15.992 71.8564 16.296 71.9844 16.296C72.0804 16.296 72.4324 16.144 73.0404 15.84L73.3284 15.696L73.7604 16.536C73.6164 16.664 73.4244 16.824 73.1844 17.016C72.9604 17.208 72.5284 17.472 71.8884 17.808C71.2484 18.128 70.6724 18.288 70.1604 18.288C69.1684 18.288 68.5924 17.84 68.4324 16.944C67.4084 17.84 66.4804 18.288 65.6484 18.288C64.8324 18.288 64.1364 17.968 63.5604 17.328C63.0004 16.688 62.7204 15.68 62.7204 14.304C62.7204 12.16 63.1604 10.472 64.0404 9.24C64.9204 7.992 65.9844 7.368 67.2324 7.368C68.1284 7.368 68.9924 7.6 69.8244 8.064ZM67.0884 16.248C67.4724 16.248 67.9044 16.096 68.3844 15.792C68.4964 13.536 68.8724 11.304 69.5124 9.096C69.0324 8.888 68.6244 8.784 68.2884 8.784C67.7124 8.784 67.2164 9.352 66.8004 10.488C66.4004 11.608 66.2004 12.848 66.2004 14.208C66.2004 15.568 66.4964 16.248 67.0884 16.248ZM81.1877 7.656C81.1557 8.056 81.0197 8.52 80.7797 9.048C80.1717 8.984 79.5957 8.952 79.0517 8.952H78.6197C77.8837 12.52 77.5157 14.744 77.5157 15.624C77.5157 16.088 77.6117 16.32 77.8037 16.32C78.0117 16.32 78.5477 16.12 79.4117 15.72L79.8437 16.512C78.4197 17.696 77.0997 18.288 75.8837 18.288C75.3237 18.288 74.8597 18.112 74.4917 17.76C74.1397 17.408 73.9637 16.944 73.9637 16.368C73.9637 15.776 74.0277 15.112 74.1557 14.376C74.2997 13.64 74.4917 12.744 74.7317 11.688C74.9717 10.616 75.1477 9.752 75.2597 9.096C74.6677 9.144 74.2277 9.192 73.9397 9.24C73.9077 9.048 73.8917 8.792 73.8917 8.472C73.8917 8.136 73.9157 7.864 73.9637 7.656H75.4757C75.6037 6.792 75.6677 5.976 75.6677 5.208L75.6437 4.464V4.392C76.8917 3.96 78.0677 3.744 79.1717 3.744C79.2357 4.064 79.2677 4.464 79.2677 4.944C79.2677 5.424 79.1317 6.328 78.8597 7.656H81.1877ZM85.7458 8.568C85.1058 8.568 84.5938 9.104 84.2098 10.176C83.8258 11.232 83.6338 12.368 83.6338 13.584C83.6338 15.504 84.2258 16.464 85.4098 16.464C85.7938 16.464 86.2018 16.376 86.6338 16.2C87.0658 16.008 87.4098 15.824 87.6658 15.648L88.0258 15.36L88.5778 16.104C88.4498 16.28 88.1938 16.512 87.8098 16.8C87.4258 17.088 87.0658 17.328 86.7298 17.52C86.3938 17.712 85.9618 17.888 85.4338 18.048C84.9058 18.208 84.3858 18.288 83.8738 18.288C82.6258 18.288 81.6898 17.88 81.0658 17.064C80.4418 16.248 80.1298 15.152 80.1298 13.776C80.1298 11.872 80.6498 10.328 81.6898 9.144C82.7458 7.96 84.0978 7.368 85.7458 7.368C86.8178 7.368 87.6658 7.616 88.2898 8.112C88.9298 8.592 89.2498 9.192 89.2498 9.912C89.2498 10.616 89.0258 11.224 88.5778 11.736C88.1778 11.736 87.7138 11.648 87.1858 11.472C86.6578 11.296 86.2578 11.08 85.9858 10.824L86.3458 8.712C86.2018 8.616 86.0018 8.568 85.7458 8.568ZM92.0449 2.16C92.0449 1.632 91.9969 1.256 91.9009 1.032C93.1489 0.599999 94.3249 0.383999 95.4289 0.383999C95.5729 0.527999 95.6449 0.895999 95.6449 1.488C95.6449 2.544 95.1969 4.976 94.3009 8.784C95.5969 7.84 96.7329 7.368 97.7089 7.368C98.3169 7.368 98.7729 7.56 99.0769 7.944C99.3969 8.328 99.5569 8.84 99.5569 9.48C99.5569 10.104 99.3729 11.136 99.0049 12.576C98.6369 14 98.4529 14.976 98.4529 15.504C98.4529 16.032 98.5169 16.296 98.6449 16.296C98.7729 16.296 99.1089 16.152 99.6529 15.864L99.9409 15.72L100.373 16.56C100.229 16.688 100.037 16.848 99.7969 17.04C99.5569 17.232 99.1169 17.488 98.4769 17.808C97.8369 18.128 97.2449 18.288 96.7009 18.288C96.1729 18.288 95.7489 18.12 95.4289 17.784C95.1089 17.432 94.9489 16.968 94.9489 16.392C94.9489 15.8 95.1249 14.736 95.4769 13.2C95.8449 11.648 96.0289 10.672 96.0289 10.272C96.0289 9.856 95.8609 9.648 95.5249 9.648C95.1089 9.648 94.5889 9.824 93.9649 10.176C93.0849 14.048 92.6449 16.56 92.6449 17.712C91.9729 17.968 90.8289 18.096 89.2129 18.096C89.1969 17.824 89.1889 17.584 89.1889 17.376C89.1889 16.688 89.6609 14.336 90.6049 10.32C91.5649 6.304 92.0449 3.584 92.0449 2.16Z" fill="black"/>
</svg>
